<svg xmlns="http://www.w3.org/2000/svg" height="215.71mm" width="456.89mm" version="1.1" xmlns:xlink="http://www.w3.org/1999/xlink" viewBox="0 0 456.88504 215.71148">
 <defs>
  <linearGradient id="linearGradient857">
   <stop stop-color="#fcfcfc" offset="0"/>
   <stop stop-color="#f56262" offset="1"/>
  </linearGradient>
  <radialGradient id="radialGradient859" xlink:href="#linearGradient857" gradientUnits="userSpaceOnUse" cy="137.87" cx="100.92" gradientTransform="matrix(.76459 2.3305e-7 -2.3305e-7 .76459 26.096 90.606)" r="15.799"/>
  <filter id="filter881" style="color-interpolation-filters:sRGB" height="1.5256" width="1.5256" y="-.26280" x="-.26280">
   <feGaussianBlur stdDeviation="3.4598886"/>
  </filter>
  <linearGradient id="linearGradient885" y2="140.14" xlink:href="#linearGradient857" gradientUnits="userSpaceOnUse" x2="98.564" y1="140.14" x1="50.359"/>
  <radialGradient id="radialGradient905" xlink:href="#linearGradient857" gradientUnits="userSpaceOnUse" cy="137.87" cx="100.92" gradientTransform="matrix(1.2871 3.9231e-7 -3.9231e-7 1.2871 -216.45 -78.892)" r="15.799"/>
  <radialGradient id="radialGradient921" xlink:href="#linearGradient857" gradientUnits="userSpaceOnUse" cy="137.87" cx="100.92" gradientTransform="matrix(.76459 2.3305e-7 -2.3305e-7 .76459 -17.749 90.606)" r="15.799"/>
  <radialGradient id="radialGradient933" xlink:href="#linearGradient857" gradientUnits="userSpaceOnUse" cy="137.87" cx="100.92" gradientTransform="matrix(.76459 2.3305e-7 -2.3305e-7 .76459 -65.374 90.606)" r="15.799"/>
 </defs>
 <g transform="translate(209.11 -79.105)">
  <g fill-rule="evenodd" stroke="#f56336" stroke-width="37.795">
   <path d="m128.69 159.99v75.059l17.387-2.3477v-72.451z" points="128.6864,235.04843 146.07387,232.70074 146.07387,160.24957 128.6864,159.98919 " fill="#353564"/>
   <path d="m128.69 235.05 54.131 37.436 29.734-6.996-66.478-32.788z" points="182.81772,272.48465 212.55174,265.48864 146.07387,232.70074 128.6864,235.04843 " fill="#afafde"/>
   <path d="m146.07 160.25 66.478-33.687v138.93l-66.478-32.788z" points="212.55174,126.56272 212.55174,265.48864 146.07387,232.70074 146.07387,160.24957 " fill="#e9e9ff"/>
   <path d="m128.69 159.99 54.131-36.348 29.734 2.921-66.478 33.687z" points="182.81772,123.64168 212.55174,126.56272 146.07387,160.24957 128.6864,159.98919 " fill="#4d4d9f"/>
   <path d="m182.82 123.64v148.84l29.734-6.996v-138.92z" points="182.81772,272.48465 212.55174,265.48864 212.55174,126.56272 182.81772,123.64168 " fill="#d7d7ff"/>
   <path d="m128.69 159.99 54.131-36.348v148.84l-54.13-37.43z" points="182.81772,123.64168 182.81772,272.48465 128.6864,235.04843 128.6864,159.98919 " fill="#8686bf"/>
  </g>
  <g fill-rule="evenodd" stroke="#f56336" stroke-width="37.795">
   <path d="m-143.44 209.39v-21.267l32.117-0.85816v20.383z" points="-143.44121,188.12481 -111.32411,187.26665 -111.32411,207.64962 -143.44121,209.39194 " fill="#353564"/>
   <path d="m-111.32 207.65 76.977-4.4471v-11.899l-76.977-4.0367z" points="-34.346878,203.20248 -34.346878,191.30332 -111.32411,187.26665 -111.32411,207.64962 " fill="#e9e9ff"/>
   <path d="m-143.44 209.39 92.592-5.301 16.502-0.88848-76.977 4.4471z" points="-50.848971,204.09096 -34.346878,203.20248 -111.32411,207.64962 -143.44121,209.39194 " fill="#4d4d9f"/>
   <path d="m-143.44 209.39 92.592-5.301v-12.195l-92.592-3.771z" points="-50.848971,204.09096 -50.848971,191.89582 -143.44121,188.12481 -143.44121,209.39194 " fill="#8686bf"/>
   <path d="m-143.44 188.12 92.592 3.771 16.502-0.5925-76.977-4.0367z" points="-50.848971,191.89582 -34.346878,191.30332 -111.32411,187.26665 -143.44121,188.12481 " fill="#afafde"/>
   <path d="m-50.849 204.09v-12.195l16.502-0.5925v11.899z" points="-50.848971,191.89582 -34.346878,191.30332 -34.346878,203.20248 -50.848971,204.09096 " fill="#d7d7ff"/>
  </g>
  <circle transform="matrix(1.0136 0 0 .52780 13.419 123.63)" filter="url(#filter881)" cy="140.14" cx="74.461" r="15.799" fill="url(#linearGradient885)"/>
  <circle cx="100.12" cy="197.37" r="9.385" fill="url(#radialGradient859)"/>
  <g font-size="10.583px" font-family="sans-serif" fill="#000000">
   <text style="word-spacing:0px;letter-spacing:0px" xml:space="preserve" line-height="1.25" y="230.47621" x="-167.06548"><tspan font-size="14.111px" y="230.47621" x="-167.06548" stroke-width=".26458">&lt;a-entity shooter&gt;</tspan></text>
   <text style="word-spacing:0px;letter-spacing:0px" xml:space="preserve" line-height="1.25" y="132.95836" x="-154.97025"><tspan font-size="14.111px" y="132.95836" x="-154.97025" stroke-width=".26458">&lt;a-entity bullet&gt;</tspan></text>
   <text style="word-spacing:0px;letter-spacing:0px" xml:space="preserve" line-height="1.25" y="287.17261" x="99.785698"><tspan font-size="14.111px" y="287.17261" x="99.785698" stroke-width=".26458">&lt;a-entity target&gt;</tspan></text>
  </g>
  <g>
   <circle cy="100.83" cx="-91.848" r="15.799" fill="url(#radialGradient905)"/>
   <circle cx="74.461" transform="matrix(1.0136 0 0 .52780 -30.426 123.63)" filter="url(#filter881)" cy="140.14" r="15.799" fill="url(#linearGradient885)"/>
   <circle cy="197.37" cx="56.27" r="9.385" fill="url(#radialGradient921)"/>
   <circle transform="matrix(1.0136 0 0 .52780 -78.051 123.63)" filter="url(#filter881)" cy="140.14" cx="74.461" r="15.799" fill="url(#linearGradient885)"/>
   <circle cx="8.6448" cy="197.37" r="9.385" fill="url(#radialGradient933)"/>
   <text style="word-spacing:0px;letter-spacing:0px" xml:space="preserve" font-size="10.583px" line-height="1.25" y="176.88762" x="-9.5355711" font-family="sans-serif" fill="#000000"><tspan y="176.88762" x="-9.5355711" stroke-width=".26458">(copies of entity bullet)</tspan></text>
  </g>
 </g>
</svg>
